<svg width="225" height="225" viewBox="0 0 225 225" fill="none" xmlns="http://www.w3.org/2000/svg">
<rect width="225" height="225" rx="112.5" fill="#DFDDD0"/>
<path d="M156.4 119.646C156.419 118.63 157.874 117.843 158.591 117.492C159.415 117.078 160.28 116.788 161.186 116.622C162.171 116.521 163.155 116.421 164.141 116.32C165.699 116.038 167.631 115.8 169.184 116.154C170.518 116.457 171.822 116.951 173.05 117.552C175.521 118.76 177.733 120.487 179.535 122.563C181.948 125.342 183.638 128.77 184.201 132.418C185.175 138.727 182.737 145.317 178.268 149.801C176.436 151.639 174.255 153.129 171.878 154.168C169.311 155.289 166.749 155.587 164.007 155.888C161.104 156.207 158.172 156.422 155.281 155.997C153.44 155.725 151.869 154.666 150.443 153.514C149.742 152.948 149.763 152.111 149.717 151.247C149.633 149.676 149.301 147.971 149.5 146.404C150.069 146.183 151.145 146.597 151.739 146.62C153.12 146.672 154.534 146.647 155.917 146.619C158.333 146.569 160.527 145.902 162.821 145.199C165.078 144.509 167.311 143.616 169.209 142.183C172.023 140.06 173.998 136.42 173.111 133.01C172.491 130.624 170.542 128.708 168.25 127.801C165.517 126.717 162.621 127.172 159.807 127.516C158.688 127.654 157.816 128.03 156.881 128.615C156.322 128.943 155.76 129.265 155.195 129.581C154.888 129.777 154.596 130.04 154.3 130.104C154.355 128.4 154.263 126.692 154.314 124.988C154.338 124.159 154.536 123.366 154.568 122.542C154.584 122.126 154.504 121.703 154.573 121.295C154.793 121.224 156.17 119.599 156.4 119.646Z" fill="#D7513E"/>
<path d="M57.3122 109.047C57.3122 109.047 53.3181 154.827 73.9034 172.033C94.4887 189.239 126.136 185.859 143.649 171.419C161.163 156.978 160.548 110.89 160.548 110.89L57.3122 109.047Z" fill="#D7513E"/>
<path d="M57.3105 109.043C57.3105 121.488 88.6496 124.713 115.38 122.409C142.111 120.104 160.546 120.104 160.546 110.887C160.546 101.67 130.589 97.5215 103.397 97.5215C76.2064 97.5215 57.3105 101.67 57.3105 109.043Z" fill="#D7513E"/>
<path d="M65.9785 111.752C70.6123 117.705 94.0716 119.202 114.403 117.905C133.505 116.687 147.572 116.481 151.542 112.991C146.779 108.486 124.478 106.434 104.009 106.434C84.3549 106.434 69.8514 108.329 65.9785 111.752Z" fill="#111111"/>
<path d="M92.1581 79.84H93.2648C93.3351 79.84 93.4054 79.84 93.4756 79.84C94.7054 79.84 95.3202 80.3143 95.3202 81.263C95.3202 81.7548 95.0918 82.2643 94.6351 82.7913C94.2135 83.3183 93.7216 83.6521 93.1594 83.7927C89.2946 83.7927 86.8879 82.6508 85.9393 80.367C85.6933 79.84 85.5704 79.2779 85.5704 78.6806C85.5704 78.0481 85.8163 76.8887 86.3082 75.2022C86.8001 73.5158 87.046 72.1631 87.046 71.1442C87.046 69.1064 86.273 67.2618 84.7271 65.6105C83.2163 63.9592 82.4609 62.747 82.4609 61.974C82.4609 61.2011 83.0582 60.27 84.2528 59.1808C84.569 58.8646 85.0785 58.32 85.7812 57.5471C86.9406 56.1768 87.5203 54.4377 87.5203 52.3296C87.5203 51.5566 87.3447 50.3445 86.9933 48.6931C86.642 47.0418 86.4663 46.0229 86.4663 45.6364C86.4663 45.25 86.5893 44.8108 86.8352 44.3189C87.0811 43.7919 87.3798 43.4054 87.7311 43.1594C88.1176 42.8784 88.6446 42.6149 89.3122 42.3689C89.9798 42.123 90.7176 42 91.5257 42H92.4743C94.7932 42 95.9526 42.5797 95.9526 43.7392C95.9526 45.3202 94.9864 46.1108 93.054 46.1108C92.6676 46.1108 92.1405 46.058 91.473 45.9526C91.0514 45.9526 90.8405 46.2689 90.8405 46.9013C90.8405 47.4986 90.946 48.3769 91.1568 49.5364C91.4027 50.6958 91.5257 51.908 91.5257 53.1728C91.5257 54.4377 91.2095 55.8079 90.577 57.2836C89.9798 58.7241 88.8906 60.2349 87.3095 61.8159C87.5906 62.2376 88.2055 63.0281 89.1541 64.1875C90.2081 65.6983 90.8581 67.5253 91.1041 69.6685C91.1041 70.1956 90.8581 71.4428 90.3662 73.4104C89.9095 75.3428 89.6811 76.713 89.6811 77.5211C89.6811 78.3292 89.927 78.9265 90.4189 79.313C90.9108 79.6643 91.4905 79.84 92.1581 79.84Z" fill="#111111"/>
<path d="M123.4 81.1576C123.4 80.2441 124.155 79.7873 125.666 79.7873L126.562 79.84C128.213 79.84 129.039 79.067 129.039 77.5211C129.039 76.6428 128.81 75.2901 128.354 73.4631C127.932 71.6009 127.721 70.2834 127.721 69.5104C127.721 68.7375 127.897 67.8064 128.248 66.7172C128.635 65.5929 129.39 64.3632 130.514 63.0281C131.041 62.3254 131.358 61.9213 131.463 61.8159C129.847 60.2349 128.722 58.7241 128.09 57.2836C127.493 55.8079 127.194 53.9985 127.194 51.8553C127.194 51.3985 127.317 50.608 127.563 49.4837C127.809 48.3594 127.932 47.4986 127.932 46.9013C127.932 46.2689 127.756 45.9526 127.405 45.9526L125.771 46.1108C123.768 46.1108 122.767 45.3202 122.767 43.7392C122.978 42.5797 124.313 42 126.772 42H126.825C128.617 42 129.97 42.3689 130.883 43.1067C131.797 43.8446 132.253 44.7932 132.253 45.9526C132.253 46.1283 132.078 47.0418 131.726 48.6931C131.375 50.3445 131.199 51.662 131.199 52.6458C131.199 54.5431 131.797 56.1768 132.991 57.5471C133.483 58.1444 133.975 58.689 134.467 59.1808C135.662 60.27 136.259 61.2011 136.259 61.974C136.259 62.747 135.503 63.9592 133.993 65.6105C132.517 67.2267 131.779 69.0712 131.779 71.1442C131.779 72.2685 132.008 73.6212 132.464 75.2022C132.921 76.7833 133.149 77.8549 133.149 78.4171C133.149 80.0333 132.517 81.3332 131.252 82.317C130.022 83.3008 128.125 83.7927 125.56 83.7927C124.998 83.6521 124.489 83.3183 124.032 82.7913C123.61 82.2643 123.4 81.7197 123.4 81.1576Z" fill="#111111"/>
</svg>
