<?xml version="1.0" encoding="UTF-8"?>
<svg width="1200" height="630" viewBox="0 0 1200 630" xmlns="http://www.w3.org/2000/svg">
  <defs>
    <linearGradient id="bg" x1="0" y1="0" x2="1" y2="1">
      <stop offset="0%" stop-color="#111111"/>
      <stop offset="100%" stop-color="#1a1410"/>
    </linearGradient>
  </defs>
  <rect width="1200" height="630" fill="url(#bg)"/>
  <rect x="0" y="0" width="1200" height="6" fill="#D7513E"/>
  <g transform="translate(312, 213) scale(1.0)">
    
<g clip-path="url(#clip0_718_40594)">
<path d="M31.5954 34.0055H32.59C32.6531 34.0055 32.7163 34.0055 32.7794 34.0055C33.8845 34.0055 34.4371 34.4318 34.4371 35.2843C34.4371 35.7263 34.2318 36.1842 33.8214 36.6578C33.4425 37.1314 33.0004 37.4313 32.4952 37.5576C29.0221 37.5576 26.8592 36.5315 26.0067 34.4791C25.7857 34.0055 25.6752 33.5003 25.6752 32.9636C25.6752 32.3952 25.8962 31.3533 26.3382 29.8377C26.7803 28.3222 27.0013 27.1065 27.0013 26.1909C27.0013 24.3596 26.3067 22.7019 24.9174 21.2179C23.5597 19.7339 22.8809 18.6446 22.8809 17.95C22.8809 17.2554 23.4176 16.4186 24.4911 15.4398C24.7753 15.1557 25.2331 14.6663 25.8646 13.9716C26.9066 12.7402 27.4276 11.1773 27.4276 9.28285C27.4276 8.58821 27.2697 7.4989 26.9539 6.0149C26.6382 4.53091 26.4803 3.61526 26.4803 3.26794C26.4803 2.92062 26.5908 2.52594 26.8119 2.0839C27.0329 1.61029 27.3013 1.26297 27.617 1.04195C27.9643 0.789357 28.4379 0.55255 29.0378 0.331529C29.6378 0.11051 30.3008 0 31.027 0H31.8795C33.9634 0 35.0054 0.520976 35.0054 1.56293C35.0054 2.98377 34.1371 3.69419 32.4005 3.69419C32.0532 3.69419 31.5796 3.64683 30.9797 3.55211C30.6008 3.55211 30.4113 3.83628 30.4113 4.40462C30.4113 4.94138 30.5061 5.73074 30.6955 6.77269C30.9165 7.81464 31.027 8.90396 31.027 10.0406C31.027 11.1773 30.7429 12.4087 30.1745 13.7348C29.6378 15.0294 28.659 16.3871 27.2381 17.8079C27.4907 18.1868 28.0433 18.8972 28.8958 19.9392C29.843 21.2969 30.4271 22.9387 30.6481 24.8648C30.6481 25.3384 30.4271 26.4593 29.9851 28.2274C29.5746 29.964 29.3694 31.1954 29.3694 31.9216C29.3694 32.6478 29.5904 33.1846 30.0324 33.5319C30.4745 33.8477 30.9955 34.0055 31.5954 34.0055Z" fill="#F7F8F1"/>
<path d="M59.6719 35.1896C59.6719 34.3686 60.3507 33.9582 61.7084 33.9582L62.5135 34.0055C63.9975 34.0055 64.7395 33.3109 64.7395 31.9216C64.7395 31.1323 64.5343 29.9167 64.1238 28.2748C63.7449 26.6014 63.5555 25.4173 63.5555 24.7227C63.5555 24.0281 63.7134 23.1913 64.0291 22.2125C64.3764 21.2021 65.0553 20.097 66.0657 18.8972C66.5393 18.2657 66.8234 17.9026 66.9182 17.8079C65.4657 16.3871 64.4554 15.0294 63.887 13.7348C63.3503 12.4087 63.0819 10.7826 63.0819 8.85659C63.0819 8.44613 63.1924 7.7357 63.4134 6.72533C63.6344 5.71495 63.7449 4.94138 63.7449 4.40462C63.7449 3.83628 63.5871 3.55211 63.2713 3.55211L61.8031 3.69419C60.0034 3.69419 59.1035 2.98377 59.1035 1.56293C59.293 0.520976 60.4928 0 62.703 0H62.7503C64.3606 0 65.5762 0.33153 66.3972 0.994589C67.2181 1.65765 67.6286 2.51016 67.6286 3.55211C67.6286 3.70998 67.4707 4.53091 67.155 6.0149C66.8392 7.4989 66.6814 8.68293 66.6814 9.56701C66.6814 11.272 67.2181 12.7402 68.2916 13.9716C68.7337 14.5084 69.1757 14.9978 69.6178 15.4398C70.6913 16.4186 71.2281 17.2554 71.2281 17.95C71.2281 18.6446 70.5492 19.7339 69.1915 21.2179C67.8654 22.6704 67.2023 24.328 67.2023 26.1909C67.2023 27.2013 67.4076 28.4169 67.818 29.8377C68.2285 31.2586 68.4337 32.2216 68.4337 32.7268C68.4337 34.1792 67.8654 35.3474 66.7287 36.2315C65.6236 37.1156 63.9186 37.5576 61.6137 37.5576C61.1085 37.4313 60.6507 37.1314 60.2402 36.6578C59.8613 36.1842 59.6719 35.6948 59.6719 35.1896Z" fill="#F7F8F1"/>
<path d="M89.3276 70.0495C89.3447 69.1364 90.6517 68.4289 91.2962 68.1136C92.0365 67.7418 92.8137 67.4814 93.6285 67.3324C94.5137 67.2415 95.3982 67.1514 96.2834 67.0605C97.6838 66.8074 99.4199 66.5937 100.816 66.9114C102.015 67.1841 103.187 67.628 104.29 68.1677C106.511 69.2535 108.498 70.8054 110.118 72.6709C112.287 75.1686 113.805 78.2493 114.311 81.5274C115.186 87.1968 112.996 93.1192 108.979 97.1491C107.333 98.8008 105.373 100.14 103.237 101.073C100.93 102.081 98.628 102.348 96.163 102.619C93.5548 102.906 90.9195 103.099 88.3219 102.717C86.6669 102.473 85.2551 101.521 83.9735 100.485C83.3437 99.9768 83.3626 99.225 83.3216 98.4479C83.2463 97.0361 82.9474 95.5047 83.1267 94.0962C83.6377 93.8972 84.6049 94.2698 85.1388 94.2902C86.3795 94.3369 87.6504 94.3148 88.8935 94.2894C91.0645 94.2444 93.0364 93.6449 95.0976 93.0136C97.1261 92.3928 99.1324 91.5903 100.838 90.3029C103.367 88.3949 105.142 85.1241 104.345 82.0589C103.788 79.915 102.036 78.1936 99.9767 77.378C97.5208 76.4043 94.9175 76.813 92.3887 77.1225C91.3839 77.2462 90.6002 77.5835 89.7591 78.1101C89.2571 78.4041 88.7519 78.694 88.2441 78.9782C87.9682 79.1542 87.7061 79.3901 87.44 79.4482C87.4891 77.916 87.4072 76.3814 87.4522 74.85C87.4744 74.1048 87.6521 73.3923 87.6807 72.652C87.6955 72.2786 87.6234 71.8978 87.6856 71.5318C87.883 71.4679 89.1204 70.0069 89.3276 70.0495Z" fill="#D7513E"/>
<path d="M0.280525 60.5234C0.280525 60.5234 -3.30878 101.665 15.1905 117.127C33.6898 132.59 62.1299 129.552 77.8687 116.575C93.6074 103.598 93.0547 62.1801 93.0547 62.1801L0.280525 60.5234Z" fill="#D7513E"/>
<path d="M0.279297 60.5223C0.279297 71.7055 28.4426 74.6044 52.4647 72.5334C76.4867 70.4623 93.0534 70.4623 93.0534 62.179C93.0534 53.8957 66.1324 50.168 41.6959 50.168C17.2603 50.168 0.279297 53.8957 0.279297 60.5223Z" fill="#D7513E"/>
<path d="M8.06836 62.955C12.2325 68.3049 33.3147 69.6504 51.5855 68.4851C68.7525 67.3902 81.3932 67.2051 84.9612 64.0687C80.6808 60.02 60.6403 58.1758 42.245 58.1758C24.5826 58.1758 11.5488 59.8791 8.06836 62.955Z" fill="#F7F8F1"/>
<path d="M158.07 106.919C155.043 106.919 152.412 106.42 150.177 105.423C147.941 104.425 146.135 103.067 144.76 101.347L149.248 96.3947C150.555 97.8392 151.982 98.9054 153.53 99.5932C155.112 100.281 156.711 100.625 158.328 100.625C160.185 100.625 161.595 100.212 162.558 99.3869C163.521 98.5615 164.002 97.3749 164.002 95.8272C164.002 94.5547 163.624 93.5917 162.867 92.9383C162.145 92.2848 160.907 91.8205 159.153 91.5454L155.387 90.9263C152.154 90.376 149.815 89.1895 148.371 87.3667C146.926 85.5095 146.204 83.2568 146.204 80.6086C146.204 77.1349 147.339 74.4523 149.609 72.5607C151.879 70.6348 155.06 69.6718 159.153 69.6718C161.939 69.6718 164.363 70.1017 166.427 70.9615C168.491 71.8213 170.159 72.9907 171.431 74.4695L167.046 79.3705C166.083 78.3043 164.948 77.4789 163.641 76.8942C162.334 76.2751 160.855 75.9656 159.205 75.9656C155.731 75.9656 153.994 77.3929 153.994 80.2475C153.994 81.4856 154.372 82.4142 155.129 83.0333C155.92 83.6523 157.193 84.1166 158.947 84.4261L162.713 85.0968C165.636 85.6127 167.889 86.7132 169.471 88.3985C171.053 90.0837 171.844 92.3536 171.844 95.2082C171.844 96.8934 171.551 98.4583 170.967 99.9028C170.382 101.313 169.505 102.551 168.336 103.617C167.166 104.649 165.722 105.457 164.002 106.042C162.317 106.626 160.34 106.919 158.07 106.919Z" fill="#F7F8F1"/>
<path d="M196.277 79.68H204.067L191.531 110.582C190.74 112.542 189.691 114.038 188.384 115.07C187.077 116.102 185.288 116.617 183.018 116.617H177.756V110.685H184.153L185.804 106.145L175.074 79.68H183.276L187.146 90.8747L189.57 98.613H189.983L192.304 90.8747L196.277 79.68Z" fill="#F7F8F1"/>
<path d="M208.38 106.3V79.68H216.015V84.5293H216.325C216.634 83.7727 217.012 83.0676 217.46 82.4142C217.907 81.7607 218.44 81.1933 219.059 80.7118C219.712 80.1959 220.452 79.8004 221.277 79.5252C222.137 79.2157 223.1 79.0609 224.166 79.0609C225.439 79.0609 226.608 79.2845 227.674 79.7316C228.74 80.1443 229.652 80.7805 230.408 81.6404C231.165 82.5002 231.75 83.5491 232.162 84.7873C232.609 86.0254 232.833 87.4527 232.833 89.0691V106.3H225.198V90.1009C225.198 86.6617 223.702 84.942 220.71 84.942C220.125 84.942 219.54 85.028 218.956 85.2C218.405 85.3375 217.907 85.5783 217.46 85.9222C217.012 86.2318 216.651 86.6273 216.376 87.1088C216.135 87.5903 216.015 88.1577 216.015 88.8112V106.3H208.38Z" fill="#F7F8F1"/>
<path d="M253.5 106.3C250.748 106.3 248.702 105.578 247.361 104.133C246.02 102.689 245.349 100.849 245.349 98.613V85.6127H238.126V79.68H242.821C243.956 79.68 244.764 79.4564 245.246 79.0093C245.727 78.5622 245.968 77.7368 245.968 76.5331V70.2908H252.984V79.68H263.353V85.6127H252.984V100.367H263.353V106.3H253.5Z" fill="#F7F8F1"/>
<path d="M270.246 68.1241H277.881V84.5293H278.191C278.5 83.7727 278.879 83.0676 279.326 82.4142C279.773 81.7607 280.306 81.1933 280.925 80.7118C281.578 80.1959 282.318 79.8004 283.143 79.5252C284.003 79.2157 284.966 79.0609 286.032 79.0609C287.305 79.0609 288.474 79.2845 289.54 79.7316C290.606 80.1443 291.518 80.7805 292.274 81.6404C293.031 82.5002 293.616 83.5491 294.028 84.7873C294.476 86.0254 294.699 87.4527 294.699 89.0691V106.3H287.064V90.1009C287.064 86.6617 285.568 84.942 282.576 84.942C281.991 84.942 281.406 85.028 280.822 85.2C280.271 85.3375 279.773 85.5783 279.326 85.9222C278.879 86.2318 278.517 86.6273 278.242 87.1088C278.002 87.5903 277.881 88.1577 277.881 88.8112V106.3H270.246V68.1241Z" fill="#F7F8F1"/>
<path d="M314.025 106.919C309.554 106.919 306.166 105.681 303.862 103.204C301.557 100.728 300.405 97.3577 300.405 93.093C300.405 90.9263 300.698 88.9831 301.282 87.2635C301.901 85.5095 302.761 84.0306 303.862 82.8269C304.997 81.5888 306.355 80.6602 307.937 80.0411C309.554 79.3877 311.359 79.0609 313.354 79.0609C315.349 79.0609 317.137 79.3877 318.719 80.0411C320.301 80.6602 321.643 81.5544 322.743 82.7237C323.844 83.8931 324.686 85.3204 325.271 87.0056C325.89 88.6564 326.2 90.5136 326.2 92.5772V94.8471H307.989V95.3114C307.989 97.031 308.522 98.4239 309.588 99.49C310.654 100.522 312.219 101.038 314.283 101.038C315.865 101.038 317.223 100.745 318.358 100.161C319.493 99.5416 320.473 98.7334 321.299 97.736L325.426 102.224C324.394 103.497 322.95 104.597 321.092 105.526C319.235 106.455 316.879 106.919 314.025 106.919ZM313.406 84.5293C311.755 84.5293 310.431 85.0452 309.433 86.077C308.47 87.0744 307.989 88.4329 307.989 90.1525V90.5652H318.719V90.1525C318.719 88.3985 318.238 87.0228 317.275 86.0254C316.346 85.028 315.056 84.5293 313.406 84.5293Z" fill="#F7F8F1"/>
<path d="M346.299 106.3C343.548 106.3 341.501 105.578 340.16 104.133C338.819 102.689 338.148 100.849 338.148 98.613V85.6127H330.926V79.68H335.62C336.755 79.68 337.563 79.4564 338.045 79.0093C338.526 78.5622 338.767 77.7368 338.767 76.5331V70.2908H345.783V79.68H356.153V85.6127H345.783V100.367H356.153V106.3H346.299Z" fill="#F7F8F1"/>
<path d="M376.819 76.2751C375.1 76.2751 373.896 75.9312 373.208 75.2434C372.555 74.5211 372.228 73.6613 372.228 72.6639V71.1678C372.228 70.1361 372.555 69.2763 373.208 68.5884C373.896 67.9006 375.1 67.5566 376.819 67.5566C378.539 67.5566 379.726 67.9006 380.379 68.5884C381.067 69.2763 381.411 70.1361 381.411 71.1678V72.6639C381.411 73.6613 381.067 74.5211 380.379 75.2434C379.726 75.9312 378.539 76.2751 376.819 76.2751ZM364.541 100.367H373.002V85.6127H364.541V79.68H380.637V100.367H388.478V106.3H364.541V100.367Z" fill="#F7F8F1"/>
<path d="M407.185 106.919C405.087 106.919 403.196 106.609 401.51 105.99C399.859 105.337 398.449 104.408 397.28 103.204C396.145 102.001 395.268 100.539 394.649 98.8194C394.03 97.0998 393.72 95.1566 393.72 92.9899C393.72 90.8231 394.03 88.88 394.649 87.1603C395.268 85.4407 396.145 83.979 397.28 82.7753C398.449 81.5716 399.859 80.6602 401.51 80.0411C403.196 79.3877 405.07 79.0609 407.133 79.0609C410.057 79.0609 412.395 79.6628 414.15 80.8665C415.938 82.0359 417.296 83.6007 418.225 85.5611L412.344 88.7596C411.862 87.7278 411.226 86.868 410.435 86.1802C409.678 85.4923 408.578 85.1484 407.133 85.1484C405.379 85.1484 404.021 85.6643 403.058 86.696C402.129 87.6934 401.665 89.0691 401.665 90.8231V95.1566C401.665 96.9106 402.129 98.3035 403.058 99.3353C404.021 100.333 405.414 100.831 407.237 100.831C408.715 100.831 409.868 100.487 410.693 99.7996C411.553 99.1117 412.275 98.2175 412.86 97.117L418.638 100.419C417.675 102.379 416.265 103.961 414.407 105.165C412.585 106.334 410.177 106.919 407.185 106.919Z" fill="#F7F8F1"/>
<path d="M456.464 70.2908H469.103C472.645 70.2908 475.345 71.1507 477.202 72.8703C479.094 74.5899 480.04 76.9286 480.04 79.8863C480.04 81.9499 479.524 83.6007 478.492 84.8389C477.495 86.0426 476.05 86.9196 474.158 87.4699V87.7794C476.394 88.3297 478.114 89.2927 479.317 90.6684C480.555 92.0441 481.175 93.9529 481.175 96.3947C481.175 99.4213 480.212 101.829 478.286 103.617C476.394 105.406 473.729 106.3 470.289 106.3H456.464V70.2908ZM467.916 100.883C469.773 100.883 471.132 100.573 471.992 99.9543C472.852 99.3353 473.281 98.2003 473.281 96.5495V95.0534C473.281 93.4026 472.852 92.2676 471.992 91.6486C471.132 91.0295 469.773 90.72 467.916 90.72H463.995V100.883H467.916ZM466.936 85.5611C468.759 85.5611 470.083 85.2688 470.908 84.6841C471.734 84.065 472.146 82.9645 472.146 81.3824V79.8348C472.146 78.2527 471.734 77.1693 470.908 76.5847C470.083 76 468.759 75.7077 466.936 75.7077H463.995V85.5611H466.936Z" fill="#F7F8F1"/>
<path d="M487.242 100.367H493.381V85.6127H487.242V79.68H501.016V87.2119H501.377C501.618 86.2489 501.945 85.3203 502.357 84.4261C502.804 83.4975 503.355 82.6893 504.008 82.0015C504.696 81.2792 505.521 80.7118 506.484 80.2991C507.447 79.8863 508.582 79.68 509.889 79.68H512.417V86.696H506.742C504.851 86.696 503.423 87.2635 502.46 88.3985C501.497 89.499 501.016 90.8575 501.016 92.474V100.367H509.786V106.3H487.242V100.367Z" fill="#F7F8F1"/>
<path d="M530.556 106.919C526.085 106.919 522.697 105.681 520.393 103.204C518.089 100.728 516.937 97.3577 516.937 93.093C516.937 90.9263 517.229 88.9831 517.814 87.2635C518.433 85.5095 519.293 84.0306 520.393 82.8269C521.528 81.5888 522.887 80.6602 524.469 80.0411C526.085 79.3877 527.891 79.0609 529.886 79.0609C531.88 79.0609 533.669 79.3877 535.251 80.0411C536.833 80.6602 538.174 81.5544 539.275 82.7237C540.375 83.8931 541.218 85.3204 541.803 87.0056C542.422 88.6564 542.731 90.5136 542.731 92.5772V94.8471H524.52V95.3114C524.52 97.031 525.053 98.4239 526.12 99.49C527.186 100.522 528.751 101.038 530.814 101.038C532.396 101.038 533.755 100.745 534.89 100.161C536.025 99.5416 537.005 98.7334 537.83 97.736L541.957 102.224C540.926 103.497 539.481 104.597 537.624 105.526C535.767 106.455 533.411 106.919 530.556 106.919ZM529.937 84.5293C528.286 84.5293 526.962 85.0452 525.965 86.077C525.002 87.0744 524.52 88.4329 524.52 90.1525V90.5652H535.251V90.1525C535.251 88.3985 534.769 87.0228 533.806 86.0254C532.878 85.028 531.588 84.5293 529.937 84.5293Z" fill="#F7F8F1"/>
<path d="M545.652 79.68H551.997L553.906 101.244H554.422L557.569 79.68H564.275L567.37 101.244H567.886L569.847 79.68H575.883L572.736 106.3H563.656L561.025 87.9342H560.509L557.878 106.3H548.798L545.652 79.68Z" fill="#F7F8F1"/>
</g>
<defs>
<clipPath id="clip0_718_40594">
<rect width="576" height="128" fill="white"/>
</clipPath>
</defs>


  </g>
  <text x="600" y="430" font-family="-apple-system, BlinkMacSystemFont, 'Segoe UI', sans-serif" font-size="32" font-weight="500" fill="#F7F8F1" text-anchor="middle" opacity="0.85">Open-source AI agent runtime</text>
  <text x="600" y="478" font-family="-apple-system, BlinkMacSystemFont, 'Segoe UI', sans-serif" font-size="24" fill="#DFDDD0" text-anchor="middle" opacity="0.6">syntheticbrew.ai</text>
</svg>